  0
SECTION
  2
HEADER
  9
$ACADVER
  1
AC1009
  9
$INSBASE
 10
0.0
 20
0.0
 30
0.0
  9
$EXTMIN
 10
0.0
 20
0.0
 30
0.0
  9
$EXTMAX
 10
0.0
 20
0.0
 30
0.0
  0
ENDSEC
  0
SECTION
  2
TABLES
  0
TABLE
  2
VPORT
 70
1
  0
VPORT
  2
*ACTIVE
 70
0
 10
0.0
 20
0.0
 11
1.0
 21
1.0
 12
-5.0
 22
1.0
 13
0.0
 23
0.0
 14
0.1
 24
0.1
 15
0.1
 25
0.1
 16
0.0
 26
0.0
 36
1.0
 17
0.0
 27
0.0
 37
0.0
 40
10.0
 41
1.0
 42
50.0
 43
0.0
 44
0.0
 50
0.0
 51
0.0
 71
0
 72
100
 73
1
 74
1
 75
0
 76
0
 77
0
 78
0
  0
ENDTAB
  0
TABLE
  2
LTYPE
 70
8
  0
LTYPE
  2
CONTINUOUS
 70
0
  3
Solid line
 72
65
 73
0
 40
0.0
  0
LTYPE
  2
DOT
 70
0
  3
. . . . . . .
 72
65
 73
2
 40
0.25
 49
0.0
 49
-0.25
  0
LTYPE
  2
DASHED
 70
0
  3
__ __ __ __ __
 72
65
 73
2
 40
0.8
 49
0.5
 49
-0.3
  0
LTYPE
  2
DASHDOT
 70
0
  3
__ . __ . __ .
 72
65
 73
4
 40
1.0
 49
0.5
 49
-0.25
 49
0.0
 49
-0.25
  0
LTYPE
  2
DIVIDE
 70
0
  3
____ . . ____ . . 
 72
65
 73
6
 40
1.25
 49
0.5
 49
-0.25
 49
0.0
 49
-0.25
 49
0.0
 49
-0.25
  0
LTYPE
  2
BORDER
 70
0
  3
__ __ . __ __ . 
 72
65
 73
6
 40
1.75
 49
0.5
 49
-0.25
 49
0.5
 49
-0.25
 49
0.0
 49
-0.25
  0
LTYPE
  2
HIDDEN
 70
0
  3
__ __ __ __ __
 72
65
 73
2
 40
0.4
 49
0.25
 49
-0.25
  0
LTYPE
  2
CENTER
 70
0
  3
____ _ ____ _ __
 72
65
 73
4
 40
2.0
 49
1.25
 49
-0.25
 49
0.25
 49
-0.25
  0
ENDTAB
  0
TABLE
  2
LAYER
 70
1
  0
LAYER
  2
PYDXF
 70
64
 62
7
  6
continuous
  0
ENDTAB
  0
TABLE
  2
STYLE
 70
1
  0
STYLE
  2
STANDARD
 70
0
 40
0
 41
1.0
 50
0.0
 71
0
 42
1
 3
ARIAL.TTF
 4

  0
ENDTAB
  0
TABLE
  2
VIEW
 70
1
  0
VIEW
  2
BF_TOPVIEW
 70
0
 40
120.0
 10
0.0
 20
0.0
 41
200.0
 11
0.0
 21
0.0
 31
1.0
 12
0.0
 22
0.0
 32
0.0
 42
50.0
 43
0.0
 44
0.0
 50
0.0
 71
0
  0
ENDTAB
  0
ENDSEC
  0
SECTION
  2
BLOCKS
  0
ENDSEC
  0
SECTION
  2
ENTITIES
  0
LINE
  8
0
 10
97.5
 20
-12.0
 30
-1.1682431022563833e-06
 11
100.5
 21
-12.0
 31
-1.1682431022563833e-06
  0
LINE
  8
0
 10
36.599998474121094
 20
-30.0
 30
-8.177701602107845e-06
 11
28.0
 21
-30.0
 31
-8.177701602107845e-06
  0
LINE
  8
0
 10
3.0
 20
-12.0
 30
-1.1682431022563833e-06
 11
14.199999809265137
 21
-12.0
 31
-1.1682431022563833e-06
  0
LINE
  8
0
 10
25.399999618530273
 20
-12.0
 30
-1.1682431022563833e-06
 11
36.599998474121094
 21
-12.0
 31
-1.1682431022563833e-06
  0
LINE
  8
0
 10
47.79999923706055
 20
-12.0
 30
-1.1682431022563833e-06
 11
59.0
 21
-12.0
 31
-1.1682431022563833e-06
  0
LINE
  8
0
 10
70.19999694824219
 20
-12.0
 30
-1.1682431022563833e-06
 11
81.4000015258789
 21
-12.0
 31
-1.1682431022563833e-06
  0
LINE
  8
0
 10
97.5
 20
-12.0
 30
-1.1682431022563833e-06
 11
92.5999984741211
 21
-12.0
 31
-1.1682431022563833e-06
  0
LINE
  8
0
 10
115.0
 20
-12.0
 30
-1.1682431022563833e-06
 11
126.19999694824219
 21
-12.0
 31
-1.1682431022563833e-06
  0
LINE
  8
0
 10
137.39999389648438
 20
-12.0
 30
-1.1682431022563833e-06
 11
148.60000610351562
 21
-12.0
 31
-1.1682431022563833e-06
  0
LINE
  8
0
 10
159.8000030517578
 20
-12.0
 30
-1.1682431022563833e-06
 11
171.0
 21
-12.0
 31
-1.1682431022563833e-06
  0
LINE
  8
0
 10
174.0
 20
-24.0
 30
-5.841215624968754e-06
 11
171.0
 21
-24.0
 31
-5.841215624968754e-06
  0
LINE
  8
0
 10
159.8000030517578
 20
-33.0
 30
-9.345944818051066e-06
 11
148.60000610351562
 21
-33.0
 31
-9.345944818051066e-06
  0
LINE
  8
0
 10
137.39999389648438
 20
-33.0
 30
-9.345944818051066e-06
 11
126.19999694824219
 21
-33.0
 31
-9.345944818051066e-06
  0
LINE
  8
0
 10
115.0
 20
-33.0
 30
-9.345944818051066e-06
 11
103.80000305175781
 21
-33.0
 31
-9.345944818051066e-06
  0
LINE
  8
0
 10
92.5999984741211
 20
-33.0
 30
-9.345944818051066e-06
 11
81.4000015258789
 21
-33.0
 31
-9.345944818051066e-06
  0
LINE
  8
0
 10
70.19999694824219
 20
-33.0
 30
-9.345944818051066e-06
 11
59.0
 21
-33.0
 31
-9.345944818051066e-06
  0
LINE
  8
0
 10
47.79999923706055
 20
-33.0
 30
-9.345944818051066e-06
 11
36.599998474121094
 21
-33.0
 31
-9.345944818051066e-06
  0
LINE
  8
0
 10
25.399999618530273
 20
-33.0
 30
-9.345944818051066e-06
 11
14.199999809265137
 21
-33.0
 31
-9.345944818051066e-06
  0
LINE
  8
0
 10
3.0
 20
-24.0
 30
-5.841215624968754e-06
 11
0.0
 21
-24.0
 31
-5.841215624968754e-06
  0
LINE
  8
0
 10
3.0
 20
-12.0
 30
-1.1682431022563833e-06
 11
3.0
 21
-18.0
 31
-3.504729193082312e-06
  0
LINE
  8
0
 10
20.0
 20
-25.0
 30
-6.230629878700711e-06
 11
20.0
 21
-30.0
 31
-8.177701602107845e-06
  0
LINE
  8
0
 10
20.0
 20
-25.0
 30
-6.230629878700711e-06
 11
28.0
 21
-25.0
 31
-6.230629878700711e-06
  0
LINE
  8
0
 10
14.199999809265137
 20
-12.0
 30
-1.1682431022563833e-06
 11
14.199999809265137
 21
-9.0
 31
0.0
  0
LINE
  8
0
 10
36.599998474121094
 20
-12.0
 30
-1.1682431022563833e-06
 11
36.599998474121094
 21
-9.0
 31
0.0
  0
LINE
  8
0
 10
59.0
 20
-12.0
 30
-1.1682431022563833e-06
 11
59.0
 21
-9.0
 31
0.0
  0
LINE
  8
0
 10
81.4000015258789
 20
-12.0
 30
-1.1682431022563833e-06
 11
81.4000015258789
 21
-9.0
 31
0.0
  0
LINE
  8
0
 10
103.80000305175781
 20
-12.0
 30
-1.1682431022563833e-06
 11
103.80000305175781
 21
-9.0
 31
0.0
  0
LINE
  8
0
 10
126.19999694824219
 20
-12.0
 30
-1.1682431022563833e-06
 11
126.19999694824219
 21
-9.0
 31
0.0
  0
LINE
  8
0
 10
148.60000610351562
 20
-12.0
 30
-1.1682431022563833e-06
 11
148.60000610351562
 21
-9.0
 31
0.0
  0
LINE
  8
0
 10
171.0
 20
-12.0
 30
-1.1682431022563833e-06
 11
171.0
 21
-18.0
 31
-3.504729193082312e-06
  0
LINE
  8
0
 10
171.0
 20
-24.0
 30
-5.841215624968754e-06
 11
171.0
 21
-30.0
 31
-8.177701602107845e-06
  0
LINE
  8
0
 10
148.60000610351562
 20
-33.0
 30
-9.345944818051066e-06
 11
148.60000610351562
 21
-30.0
 31
-8.177701602107845e-06
  0
LINE
  8
0
 10
126.19999694824219
 20
-33.0
 30
-9.345944818051066e-06
 11
126.19999694824219
 21
-30.0
 31
-8.177701602107845e-06
  0
LINE
  8
0
 10
103.80000305175781
 20
-33.0
 30
-9.345944818051066e-06
 11
103.80000305175781
 21
-30.0
 31
-8.177701602107845e-06
  0
LINE
  8
0
 10
81.4000015258789
 20
-33.0
 30
-9.345944818051066e-06
 11
81.4000015258789
 21
-30.0
 31
-8.177701602107845e-06
  0
LINE
  8
0
 10
59.0
 20
-33.0
 30
-9.345944818051066e-06
 11
59.0
 21
-30.0
 31
-8.177701602107845e-06
  0
LINE
  8
0
 10
36.599998474121094
 20
-33.0
 30
-9.345944818051066e-06
 11
36.599998474121094
 21
-30.0
 31
-8.177701602107845e-06
  0
LINE
  8
0
 10
14.199999809265137
 20
-33.0
 30
-9.345944818051066e-06
 11
14.199999809265137
 21
-30.0
 31
-8.177701602107845e-06
  0
LINE
  8
0
 10
0.0
 20
-24.0
 30
-5.841215624968754e-06
 11
0.0
 21
-18.0
 31
-3.504729193082312e-06
  0
LINE
  8
0
 10
97.5
 20
-30.0
 30
-8.177701602107845e-06
 11
100.5
 21
-30.0
 31
-8.177701602107845e-06
  0
LINE
  8
0
 10
14.199999809265137
 20
-9.0
 30
0.0
 11
25.399999618530273
 21
-9.0
 31
0.0
  0
LINE
  8
0
 10
36.599998474121094
 20
-9.0
 30
0.0
 11
47.79999923706055
 21
-9.0
 31
0.0
  0
LINE
  8
0
 10
59.0
 20
-9.0
 30
0.0
 11
70.19999694824219
 21
-9.0
 31
0.0
  0
LINE
  8
0
 10
81.4000015258789
 20
-9.0
 30
0.0
 11
92.5999984741211
 21
-9.0
 31
0.0
  0
LINE
  8
0
 10
103.80000305175781
 20
-9.0
 30
0.0
 11
115.0
 21
-9.0
 31
0.0
  0
LINE
  8
0
 10
126.19999694824219
 20
-9.0
 30
0.0
 11
137.39999389648438
 21
-9.0
 31
0.0
  0
LINE
  8
0
 10
148.60000610351562
 20
-9.0
 30
0.0
 11
159.8000030517578
 21
-9.0
 31
0.0
  0
LINE
  8
0
 10
171.0
 20
-18.0
 30
-3.504729193082312e-06
 11
174.0
 21
-18.0
 31
-3.504729193082312e-06
  0
LINE
  8
0
 10
171.0
 20
-30.0
 30
-8.177701602107845e-06
 11
159.8000030517578
 21
-30.0
 31
-8.177701602107845e-06
  0
LINE
  8
0
 10
148.60000610351562
 20
-30.0
 30
-8.177701602107845e-06
 11
137.39999389648438
 21
-30.0
 31
-8.177701602107845e-06
  0
LINE
  8
0
 10
126.19999694824219
 20
-30.0
 30
-8.177701602107845e-06
 11
115.0
 21
-30.0
 31
-8.177701602107845e-06
  0
LINE
  8
0
 10
97.5
 20
-30.0
 30
-8.177701602107845e-06
 11
92.5999984741211
 21
-30.0
 31
-8.177701602107845e-06
  0
LINE
  8
0
 10
81.4000015258789
 20
-30.0
 30
-8.177701602107845e-06
 11
70.19999694824219
 21
-30.0
 31
-8.177701602107845e-06
  0
LINE
  8
0
 10
59.0
 20
-30.0
 30
-8.177701602107845e-06
 11
47.79999923706055
 21
-30.0
 31
-8.177701602107845e-06
  0
LINE
  8
0
 10
14.199999809265137
 20
-30.0
 30
-8.177701602107845e-06
 11
3.0
 21
-30.0
 31
-8.177701602107845e-06
  0
LINE
  8
0
 10
0.0
 20
-18.0
 30
-3.504729193082312e-06
 11
3.0
 21
-18.0
 31
-3.504729193082312e-06
  0
LINE
  8
0
 10
28.0
 20
-25.0
 30
-6.230629878700711e-06
 11
28.0
 21
-30.0
 31
-8.177701602107845e-06
  0
LINE
  8
0
 10
25.399999618530273
 20
-9.0
 30
0.0
 11
25.399999618530273
 21
-12.0
 31
-1.1682431022563833e-06
  0
LINE
  8
0
 10
47.79999923706055
 20
-9.0
 30
0.0
 11
47.79999923706055
 21
-12.0
 31
-1.1682431022563833e-06
  0
LINE
  8
0
 10
70.19999694824219
 20
-9.0
 30
0.0
 11
70.19999694824219
 21
-12.0
 31
-1.1682431022563833e-06
  0
LINE
  8
0
 10
92.5999984741211
 20
-9.0
 30
0.0
 11
92.5999984741211
 21
-12.0
 31
-1.1682431022563833e-06
  0
LINE
  8
0
 10
100.5
 20
-12.0
 30
-1.1682431022563833e-06
 11
103.80000305175781
 21
-12.0
 31
-1.1682431022563833e-06
  0
LINE
  8
0
 10
115.0
 20
-9.0
 30
0.0
 11
115.0
 21
-12.0
 31
-1.1682431022563833e-06
  0
LINE
  8
0
 10
137.39999389648438
 20
-9.0
 30
0.0
 11
137.39999389648438
 21
-12.0
 31
-1.1682431022563833e-06
  0
LINE
  8
0
 10
159.8000030517578
 20
-9.0
 30
0.0
 11
159.8000030517578
 21
-12.0
 31
-1.1682431022563833e-06
  0
LINE
  8
0
 10
174.0
 20
-18.0
 30
-3.504729193082312e-06
 11
174.0
 21
-24.0
 31
-5.841215624968754e-06
  0
LINE
  8
0
 10
159.8000030517578
 20
-30.0
 30
-8.177701602107845e-06
 11
159.8000030517578
 21
-33.0
 31
-9.345944818051066e-06
  0
LINE
  8
0
 10
137.39999389648438
 20
-30.0
 30
-8.177701602107845e-06
 11
137.39999389648438
 21
-33.0
 31
-9.345944818051066e-06
  0
LINE
  8
0
 10
115.0
 20
-30.0
 30
-8.177701602107845e-06
 11
115.0
 21
-33.0
 31
-9.345944818051066e-06
  0
LINE
  8
0
 10
100.5
 20
-30.0
 30
-8.177701602107845e-06
 11
103.80000305175781
 21
-30.0
 31
-8.177701602107845e-06
  0
LINE
  8
0
 10
92.5999984741211
 20
-30.0
 30
-8.177701602107845e-06
 11
92.5999984741211
 21
-33.0
 31
-9.345944818051066e-06
  0
LINE
  8
0
 10
70.19999694824219
 20
-30.0
 30
-8.177701602107845e-06
 11
70.19999694824219
 21
-33.0
 31
-9.345944818051066e-06
  0
LINE
  8
0
 10
47.79999923706055
 20
-30.0
 30
-8.177701602107845e-06
 11
47.79999923706055
 21
-33.0
 31
-9.345944818051066e-06
  0
LINE
  8
0
 10
25.399999618530273
 20
-30.0
 30
-8.177701602107845e-06
 11
25.399999618530273
 21
-33.0
 31
-9.345944818051066e-06
  0
LINE
  8
0
 10
3.0
 20
-30.0
 30
-8.177701602107845e-06
 11
3.0
 21
-24.0
 31
-5.841215624968754e-06
  0
LINE
  8
0
 10
25.399999618530273
 20
-30.0
 30
-8.177701602107845e-06
 11
20.0
 21
-30.0
 31
-8.177701602107845e-06
  0
LINE
  8
0
 10
40.84803771972656
 20
-45.012271881103516
 30
-3.509508132992778e-06
 11
40.990299224853516
 21
-44.54328918457031
 31
-3.326879550513695e-06
  0
LINE
  8
0
 10
41.53223419189453
 20
-43.73223114013672
 30
-3.01104182653944e-06
 11
41.91107177734375
 21
-43.42132568359375
 31
-2.8899701192131033e-06
  0
LINE
  8
0
 10
43.29999923706055
 20
-43.0
 30
-2.725899776123697e-06
 11
42.81227493286133
 21
-43.04803466796875
 31
-2.744606035776087e-06
  0
LINE
  8
0
 10
41.91107177734375
 20
-47.57867431640625
 30
-4.5089013838151e-06
 11
42.343292236328125
 21
-47.809696197509766
 31
-4.598865871230373e-06
  0
LINE
  8
0
 10
42.343292236328125
 20
-47.809696197509766
 30
-4.598865871230373e-06
 11
42.81227493286133
 21
-47.951961517333984
 31
-4.654265467252117e-06
  0
LINE
  8
0
 10
45.79999923706055
 20
-45.5
 30
-3.699435637827264e-06
 11
45.75196075439453
 21
-45.98772430419922
 31
-3.88936314266175e-06
  0
LINE
  8
0
 10
44.688926696777344
 20
-47.57867431640625
 30
-4.5089013838151e-06
 11
45.06776428222656
 21
-47.267765045166016
 31
-4.387829449115088e-06
  0
LINE
  8
0
 10
97.5
 20
-44.099998474121094
 30
-3.1542554097541142e-06
 11
100.5
 21
-44.099998474121094
 31
-3.1542554097541142e-06
  0
LINE
  8
0
 10
97.5
 20
-51.89999771118164
 30
-6.1916875893075485e-06
 11
100.5
 21
-51.89999771118164
 31
-6.1916875893075485e-06
  0
LINE
  8
0
 10
3.0
 20
-39.0
 30
-1.1682431022563833e-06
 11
14.199999809265137
 21
-39.0
 31
-1.1682431022563833e-06
  0
LINE
  8
0
 10
25.399999618530273
 20
-39.0
 30
-1.1682431022563833e-06
 11
36.599998474121094
 21
-39.0
 31
-1.1682431022563833e-06
  0
LINE
  8
0
 10
47.79999923706055
 20
-39.0
 30
-1.1682431022563833e-06
 11
59.0
 21
-39.0
 31
-1.1682431022563833e-06
  0
LINE
  8
0
 10
70.19999694824219
 20
-39.0
 30
-1.1682431022563833e-06
 11
81.4000015258789
 21
-39.0
 31
-1.1682431022563833e-06
  0
LINE
  8
0
 10
92.5999984741211
 20
-39.0
 30
-1.1682431022563833e-06
 11
103.80000305175781
 21
-39.0
 31
-1.1682431022563833e-06
  0
LINE
  8
0
 10
115.0
 20
-39.0
 30
-1.1682431022563833e-06
 11
126.19999694824219
 21
-39.0
 31
-1.1682431022563833e-06
  0
LINE
  8
0
 10
137.39999389648438
 20
-39.0
 30
-1.1682431022563833e-06
 11
148.60000610351562
 21
-39.0
 31
-1.1682431022563833e-06
  0
LINE
  8
0
 10
159.8000030517578
 20
-39.0
 30
-1.1682431022563833e-06
 11
171.0
 21
-39.0
 31
-1.1682431022563833e-06
  0
LINE
  8
0
 10
174.0
 20
-51.0
 30
-5.841215624968754e-06
 11
171.0
 21
-51.0
 31
-5.841215624968754e-06
  0
LINE
  8
0
 10
159.8000030517578
 20
-60.0
 30
-9.345944818051066e-06
 11
148.60000610351562
 21
-60.0
 31
-9.345944818051066e-06
  0
LINE
  8
0
 10
137.39999389648438
 20
-60.0
 30
-9.345944818051066e-06
 11
126.19999694824219
 21
-60.0
 31
-9.345944818051066e-06
  0
LINE
  8
0
 10
115.0
 20
-60.0
 30
-9.345944818051066e-06
 11
103.80000305175781
 21
-60.0
 31
-9.345944818051066e-06
  0
LINE
  8
0
 10
92.5999984741211
 20
-60.0
 30
-9.345944818051066e-06
 11
81.4000015258789
 21
-60.0
 31
-9.345944818051066e-06
  0
LINE
  8
0
 10
70.19999694824219
 20
-60.0
 30
-9.345944818051066e-06
 11
59.0
 21
-60.0
 31
-9.345944818051066e-06
  0
LINE
  8
0
 10
47.79999923706055
 20
-60.0
 30
-9.345944818051066e-06
 11
36.599998474121094
 21
-60.0
 31
-9.345944818051066e-06
  0
LINE
  8
0
 10
25.399999618530273
 20
-60.0
 30
-9.345944818051066e-06
 11
14.199999809265137
 21
-60.0
 31
-9.345944818051066e-06
  0
LINE
  8
0
 10
3.0
 20
-51.0
 30
-5.841215624968754e-06
 11
0.0
 21
-51.0
 31
-5.841215624968754e-06
  0
LINE
  8
0
 10
3.0
 20
-39.0
 30
-1.1682431022563833e-06
 11
3.0
 21
-45.0
 31
-3.504729193082312e-06
  0
LINE
  8
0
 10
40.79999923706055
 20
-45.5
 30
-3.699435637827264e-06
 11
40.84803771972656
 21
-45.012271881103516
 31
-3.509508132992778e-06
  0
LINE
  8
0
 10
40.79999923706055
 20
-45.5
 30
-3.699435637827264e-06
 11
40.84803771972656
 21
-45.98772430419922
 31
-3.88936314266175e-06
  0
LINE
  8
0
 10
41.2213249206543
 20
-46.88892364501953
 30
-4.240303496771958e-06
 11
40.990299224853516
 21
-46.45670700073242
 31
-4.071991952514509e-06
  0
LINE
  8
0
 10
41.2213249206543
 20
-46.88892364501953
 30
-4.240303496771958e-06
 11
41.53223419189453
 21
-47.267765045166016
 31
-4.387829449115088e-06
  0
LINE
  8
0
 10
41.53223419189453
 20
-47.267765045166016
 30
-4.387829449115088e-06
 11
41.91107177734375
 21
-47.57867431640625
 31
-4.5089013838151e-06
  0
LINE
  8
0
 10
43.787723541259766
 20
-43.04803466796875
 30
-2.744606035776087e-06
 11
43.29999923706055
 21
-43.0
 31
-2.725899776123697e-06
  0
LINE
  8
0
 10
43.787723541259766
 20
-43.04803466796875
 30
-2.744606035776087e-06
 11
44.25670623779297
 21
-43.19029998779297
 31
-2.800005859171506e-06
  0
LINE
  8
0
 10
44.25670623779297
 20
-47.809696197509766
 30
-4.598865871230373e-06
 11
44.688926696777344
 21
-47.57867431640625
 31
-4.5089013838151e-06
  0
LINE
  8
0
 10
45.3786735534668
 20
-46.88892364501953
 30
-4.240303496771958e-06
 11
45.60969924926758
 21
-46.45670700073242
 31
-4.071991952514509e-06
  0
LINE
  8
0
 10
45.3786735534668
 20
-46.88892364501953
 30
-4.240303496771958e-06
 11
45.06776428222656
 21
-47.267765045166016
 31
-4.387829449115088e-06
  0
LINE
  8
0
 10
97.5
 20
-42.19999694824219
 30
-2.4143687369360123e-06
 11
97.5
 21
-44.099998474121094
 31
-3.1542554097541142e-06
  0
LINE
  8
0
 10
97.5
 20
-42.19999694824219
 30
-2.4143687369360123e-06
 11
100.5
 21
-42.19999694824219
 31
-2.4143687369360123e-06
  0
LINE
  8
0
 10
97.5
 20
-53.79999923706055
 30
-6.931575626367703e-06
 11
97.5
 21
-51.89999771118164
 31
-6.1916875893075485e-06
  0
LINE
  8
0
 10
97.5
 20
-53.79999923706055
 30
-6.931575626367703e-06
 11
100.5
 21
-53.79999923706055
 31
-6.931575626367703e-06
  0
LINE
  8
0
 10
14.199999809265137
 20
-39.0
 30
-1.1682431022563833e-06
 11
14.199999809265137
 21
-36.0
 31
0.0
  0
LINE
  8
0
 10
36.599998474121094
 20
-39.0
 30
-1.1682431022563833e-06
 11
36.599998474121094
 21
-36.0
 31
0.0
  0
LINE
  8
0
 10
59.0
 20
-39.0
 30
-1.1682431022563833e-06
 11
59.0
 21
-36.0
 31
0.0
  0
LINE
  8
0
 10
81.4000015258789
 20
-39.0
 30
-1.1682431022563833e-06
 11
81.4000015258789
 21
-36.0
 31
0.0
  0
LINE
  8
0
 10
103.80000305175781
 20
-39.0
 30
-1.1682431022563833e-06
 11
103.80000305175781
 21
-36.0
 31
0.0
  0
LINE
  8
0
 10
126.19999694824219
 20
-39.0
 30
-1.1682431022563833e-06
 11
126.19999694824219
 21
-36.0
 31
0.0
  0
LINE
  8
0
 10
148.60000610351562
 20
-39.0
 30
-1.1682431022563833e-06
 11
148.60000610351562
 21
-36.0
 31
0.0
  0
LINE
  8
0
 10
171.0
 20
-39.0
 30
-1.1682431022563833e-06
 11
171.0
 21
-45.0
 31
-3.504729193082312e-06
  0
LINE
  8
0
 10
171.0
 20
-51.0
 30
-5.841215624968754e-06
 11
171.0
 21
-57.0
 31
-8.177701602107845e-06
  0
LINE
  8
0
 10
148.60000610351562
 20
-60.0
 30
-9.345944818051066e-06
 11
148.60000610351562
 21
-57.0
 31
-8.177701602107845e-06
  0
LINE
  8
0
 10
126.19999694824219
 20
-60.0
 30
-9.345944818051066e-06
 11
126.19999694824219
 21
-57.0
 31
-8.177701602107845e-06
  0
LINE
  8
0
 10
103.80000305175781
 20
-60.0
 30
-9.345944818051066e-06
 11
103.80000305175781
 21
-57.0
 31
-8.177701602107845e-06
  0
LINE
  8
0
 10
81.4000015258789
 20
-60.0
 30
-9.345944818051066e-06
 11
81.4000015258789
 21
-57.0
 31
-8.177701602107845e-06
  0
LINE
  8
0
 10
59.0
 20
-60.0
 30
-9.345944818051066e-06
 11
59.0
 21
-57.0
 31
-8.177701602107845e-06
  0
LINE
  8
0
 10
36.599998474121094
 20
-60.0
 30
-9.345944818051066e-06
 11
36.599998474121094
 21
-57.0
 31
-8.177701602107845e-06
  0
LINE
  8
0
 10
14.199999809265137
 20
-60.0
 30
-9.345944818051066e-06
 11
14.199999809265137
 21
-57.0
 31
-8.177701602107845e-06
  0
LINE
  8
0
 10
0.0
 20
-51.0
 30
-5.841215624968754e-06
 11
0.0
 21
-45.0
 31
-3.504729193082312e-06
  0
LINE
  8
0
 10
45.79999923706055
 20
-45.5
 30
-3.699435637827264e-06
 11
45.75196075439453
 21
-45.012271881103516
 31
-3.509508132992778e-06
  0
LINE
  8
0
 10
41.2213249206543
 20
-44.1110725402832
 30
-3.1585682336299215e-06
 11
41.53223419189453
 21
-43.73223114013672
 31
-3.01104182653944e-06
  0
LINE
  8
0
 10
41.2213249206543
 20
-44.1110725402832
 30
-3.1585682336299215e-06
 11
40.990299224853516
 21
-44.54328918457031
 31
-3.326879550513695e-06
  0
LINE
  8
0
 10
45.75196075439453
 20
-45.98772430419922
 30
-3.88936314266175e-06
 11
45.60969924926758
 21
-46.45670700073242
 31
-4.071991952514509e-06
  0
LINE
  8
0
 10
45.3786735534668
 20
-44.1110725402832
 30
-3.1585682336299215e-06
 11
45.06776428222656
 21
-43.73223114013672
 31
-3.01104182653944e-06
  0
LINE
  8
0
 10
14.199999809265137
 20
-36.0
 30
0.0
 11
25.399999618530273
 21
-36.0
 31
0.0
  0
LINE
  8
0
 10
36.599998474121094
 20
-36.0
 30
0.0
 11
47.79999923706055
 21
-36.0
 31
0.0
  0
LINE
  8
0
 10
59.0
 20
-36.0
 30
0.0
 11
70.19999694824219
 21
-36.0
 31
0.0
  0
LINE
  8
0
 10
81.4000015258789
 20
-36.0
 30
0.0
 11
92.5999984741211
 21
-36.0
 31
0.0
  0
LINE
  8
0
 10
103.80000305175781
 20
-36.0
 30
0.0
 11
115.0
 21
-36.0
 31
0.0
  0
LINE
  8
0
 10
126.19999694824219
 20
-36.0
 30
0.0
 11
137.39999389648438
 21
-36.0
 31
0.0
  0
LINE
  8
0
 10
148.60000610351562
 20
-36.0
 30
0.0
 11
159.8000030517578
 21
-36.0
 31
0.0
  0
LINE
  8
0
 10
171.0
 20
-45.0
 30
-3.504729193082312e-06
 11
174.0
 21
-45.0
 31
-3.504729193082312e-06
  0
LINE
  8
0
 10
171.0
 20
-57.0
 30
-8.177701602107845e-06
 11
159.8000030517578
 21
-57.0
 31
-8.177701602107845e-06
  0
LINE
  8
0
 10
148.60000610351562
 20
-57.0
 30
-8.177701602107845e-06
 11
137.39999389648438
 21
-57.0
 31
-8.177701602107845e-06
  0
LINE
  8
0
 10
126.19999694824219
 20
-57.0
 30
-8.177701602107845e-06
 11
115.0
 21
-57.0
 31
-8.177701602107845e-06
  0
LINE
  8
0
 10
103.80000305175781
 20
-57.0
 30
-8.177701602107845e-06
 11
92.5999984741211
 21
-57.0
 31
-8.177701602107845e-06
  0
LINE
  8
0
 10
81.4000015258789
 20
-57.0
 30
-8.177701602107845e-06
 11
70.19999694824219
 21
-57.0
 31
-8.177701602107845e-06
  0
LINE
  8
0
 10
59.0
 20
-57.0
 30
-8.177701602107845e-06
 11
47.79999923706055
 21
-57.0
 31
-8.177701602107845e-06
  0
LINE
  8
0
 10
36.599998474121094
 20
-57.0
 30
-8.177701602107845e-06
 11
25.399999618530273
 21
-57.0
 31
-8.177701602107845e-06
  0
LINE
  8
0
 10
14.199999809265137
 20
-57.0
 30
-8.177701602107845e-06
 11
3.0
 21
-57.0
 31
-8.177701602107845e-06
  0
LINE
  8
0
 10
0.0
 20
-45.0
 30
-3.504729193082312e-06
 11
3.0
 21
-45.0
 31
-3.504729193082312e-06
  0
LINE
  8
0
 10
44.25670623779297
 20
-47.809696197509766
 30
-4.598865871230373e-06
 11
43.787723541259766
 21
-47.951961517333984
 31
-4.654265467252117e-06
  0
LINE
  8
0
 10
40.84803771972656
 20
-45.98772430419922
 30
-3.88936314266175e-06
 11
40.990299224853516
 21
-46.45670700073242
 31
-4.071991952514509e-06
  0
LINE
  8
0
 10
42.343292236328125
 20
-43.19029998779297
 30
-2.800005859171506e-06
 11
41.91107177734375
 21
-43.42132568359375
 31
-2.8899701192131033e-06
  0
LINE
  8
0
 10
44.688926696777344
 20
-43.42132568359375
 30
-2.8899701192131033e-06
 11
44.25670623779297
 21
-43.19029998779297
 31
-2.800005859171506e-06
  0
LINE
  8
0
 10
42.343292236328125
 20
-43.19029998779297
 30
-2.800005859171506e-06
 11
42.81227493286133
 21
-43.04803466796875
 31
-2.744606035776087e-06
  0
LINE
  8
0
 10
43.29999923706055
 20
-48.0
 30
-4.672971499530831e-06
 11
42.81227493286133
 21
-47.951961517333984
 31
-4.654265467252117e-06
  0
LINE
  8
0
 10
43.29999923706055
 20
-48.0
 30
-4.672971499530831e-06
 11
43.787723541259766
 21
-47.951961517333984
 31
-4.654265467252117e-06
  0
LINE
  8
0
 10
45.75196075439453
 20
-45.012271881103516
 30
-3.509508132992778e-06
 11
45.60969924926758
 21
-44.54328918457031
 31
-3.326879550513695e-06
  0
LINE
  8
0
 10
44.688926696777344
 20
-43.42132568359375
 30
-2.8899701192131033e-06
 11
45.06776428222656
 21
-43.73223114013672
 31
-3.01104182653944e-06
  0
LINE
  8
0
 10
100.5
 20
-42.19999694824219
 30
-2.4143687369360123e-06
 11
100.5
 21
-44.099998474121094
 31
-3.1542554097541142e-06
  0
LINE
  8
0
 10
100.5
 20
-51.89999771118164
 30
-6.1916875893075485e-06
 11
100.5
 21
-53.79999923706055
 31
-6.931575626367703e-06
  0
LINE
  8
0
 10
25.399999618530273
 20
-36.0
 30
0.0
 11
25.399999618530273
 21
-39.0
 31
-1.1682431022563833e-06
  0
LINE
  8
0
 10
47.79999923706055
 20
-36.0
 30
0.0
 11
47.79999923706055
 21
-39.0
 31
-1.1682431022563833e-06
  0
LINE
  8
0
 10
70.19999694824219
 20
-36.0
 30
0.0
 11
70.19999694824219
 21
-39.0
 31
-1.1682431022563833e-06
  0
LINE
  8
0
 10
92.5999984741211
 20
-36.0
 30
0.0
 11
92.5999984741211
 21
-39.0
 31
-1.1682431022563833e-06
  0
LINE
  8
0
 10
115.0
 20
-36.0
 30
0.0
 11
115.0
 21
-39.0
 31
-1.1682431022563833e-06
  0
LINE
  8
0
 10
137.39999389648438
 20
-36.0
 30
0.0
 11
137.39999389648438
 21
-39.0
 31
-1.1682431022563833e-06
  0
LINE
  8
0
 10
159.8000030517578
 20
-36.0
 30
0.0
 11
159.8000030517578
 21
-39.0
 31
-1.1682431022563833e-06
  0
LINE
  8
0
 10
174.0
 20
-45.0
 30
-3.504729193082312e-06
 11
174.0
 21
-51.0
 31
-5.841215624968754e-06
  0
LINE
  8
0
 10
159.8000030517578
 20
-57.0
 30
-8.177701602107845e-06
 11
159.8000030517578
 21
-60.0
 31
-9.345944818051066e-06
  0
LINE
  8
0
 10
137.39999389648438
 20
-57.0
 30
-8.177701602107845e-06
 11
137.39999389648438
 21
-60.0
 31
-9.345944818051066e-06
  0
LINE
  8
0
 10
115.0
 20
-57.0
 30
-8.177701602107845e-06
 11
115.0
 21
-60.0
 31
-9.345944818051066e-06
  0
LINE
  8
0
 10
92.5999984741211
 20
-57.0
 30
-8.177701602107845e-06
 11
92.5999984741211
 21
-60.0
 31
-9.345944818051066e-06
  0
LINE
  8
0
 10
70.19999694824219
 20
-57.0
 30
-8.177701602107845e-06
 11
70.19999694824219
 21
-60.0
 31
-9.345944818051066e-06
  0
LINE
  8
0
 10
47.79999923706055
 20
-57.0
 30
-8.177701602107845e-06
 11
47.79999923706055
 21
-60.0
 31
-9.345944818051066e-06
  0
LINE
  8
0
 10
25.399999618530273
 20
-57.0
 30
-8.177701602107845e-06
 11
25.399999618530273
 21
-60.0
 31
-9.345944818051066e-06
  0
LINE
  8
0
 10
3.0
 20
-57.0
 30
-8.177701602107845e-06
 11
3.0
 21
-51.0
 31
-5.841215624968754e-06
  0
LINE
  8
0
 10
45.3786735534668
 20
-44.1110725402832
 30
-3.1585682336299215e-06
 11
45.60969924926758
 21
-44.54328918457031
 31
-3.326879550513695e-06
  0
LINE
  8
0
 10
177.0
 20
-98.0
 30
-1.2071845048922114e-05
 11
-3.0
 21
-98.0
 31
-1.2071845048922114e-05
  0
LINE
  8
0
 10
17.5
 20
-82.5
 30
-6.035922524461057e-06
 11
8.479999542236328
 21
-82.5
 31
-6.035922524461057e-06
  0
LINE
  8
0
 10
0.0
 20
-77.33333587646484
 30
-4.023948349640705e-06
 11
3.0
 21
-77.33333587646484
 31
-4.023948349640705e-06
  0
LINE
  8
0
 10
0.0
 20
-77.33333587646484
 30
-4.023948349640705e-06
 11
0.0
 21
-84.66666412353516
 31
-6.879653483338188e-06
  0
LINE
  8
0
 10
14.199999809265137
 20
-92.0
 30
-9.735359526530374e-06
 11
25.399999618530273
 21
-92.0
 31
-9.735359526530374e-06
  0
LINE
  8
0
 10
25.399999618530273
 20
-92.0
 30
-9.735359526530374e-06
 11
25.399999618530273
 21
-95.0
 31
-1.0903602742473595e-05
  0
LINE
  8
0
 10
36.599998474121094
 20
-95.0
 30
-1.0903602742473595e-05
 11
47.79999923706055
 21
-95.0
 31
-1.0903602742473595e-05
  0
LINE
  8
0
 10
70.19999694824219
 20
-92.0
 30
-9.735359526530374e-06
 11
70.19999694824219
 21
-95.0
 31
-1.0903602742473595e-05
  0
LINE
  8
0
 10
92.5999984741211
 20
-92.0
 30
-9.735359526530374e-06
 11
92.5999984741211
 21
-95.0
 31
-1.0903602742473595e-05
  0
LINE
  8
0
 10
115.0
 20
-92.0
 30
-9.735359526530374e-06
 11
115.0
 21
-95.0
 31
-1.0903602742473595e-05
  0
LINE
  8
0
 10
47.79999923706055
 20
-67.0
 30
0.0
 11
47.79999923706055
 21
-70.0
 31
-1.1682431022563833e-06
  0
LINE
  8
0
 10
59.0
 20
-70.0
 30
-1.1682431022563833e-06
 11
70.19999694824219
 21
-70.0
 31
-1.1682431022563833e-06
  0
LINE
  8
0
 10
92.5999984741211
 20
-67.0
 30
0.0
 11
92.5999984741211
 21
-70.0
 31
-1.1682431022563833e-06
  0
LINE
  8
0
 10
115.0
 20
-67.0
 30
0.0
 11
115.0
 21
-70.0
 31
-1.1682431022563833e-06
  0
LINE
  8
0
 10
137.39999389648438
 20
-67.0
 30
0.0
 11
137.39999389648438
 21
-70.0
 31
-1.1682431022563833e-06
  0
LINE
  8
0
 10
148.60000610351562
 20
-92.0
 30
-9.735359526530374e-06
 11
159.8000030517578
 21
-92.0
 31
-9.735359526530374e-06
  0
LINE
  8
0
 10
14.199999809265137
 20
-67.0
 30
0.0
 11
20.0
 21
-67.0
 31
0.0
  0
LINE
  8
0
 10
59.0
 20
-86.0
 30
-7.398873094643932e-06
 11
59.0
 21
-84.0
 31
-6.6200441324326675e-06
  0
LINE
  8
0
 10
8.090909004211426
 20
-84.0
 30
-6.6200441324326675e-06
 11
13.181818008422852
 21
-84.0
 31
-6.6200441324326675e-06
  0
LINE
  8
0
 10
5.036364555358887
 20
-86.0
 30
-7.398873094643932e-06
 11
20.0
 21
-86.0
 31
-7.398873094643932e-06
  0
LINE
  8
0
 10
59.0
 20
-86.0
 30
-7.398873094643932e-06
 11
28.0
 21
-86.0
 31
-7.398873094643932e-06
  0
LINE
  8
0
 10
8.0
 20
-77.5
 30
-4.088850801053923e-06
 11
17.5
 21
-77.5
 31
-4.088850801053923e-06
  0
LINE
  8
0
 10
148.60000610351562
 20
-70.0
 30
-1.1682431022563833e-06
 11
159.8000030517578
 21
-70.0
 31
-1.1682431022563833e-06
  0
LINE
  8
0
 10
-3.0
 20
-64.0
 30
1.1682431022563833e-06
 11
177.0
 21
-64.0
 31
1.1682431022563833e-06
  0
LINE
  8
0
 10
-3.0
 20
-64.0
 30
1.1682431022563833e-06
 11
-3.0
 21
-98.0
 31
-1.2071845048922114e-05
  0
LINE
  8
0
 10
97.5
 20
-77.33333587646484
 30
-4.023948349640705e-06
 11
100.5
 21
-77.33333587646484
 31
-4.023948349640705e-06
  0
LINE
  8
0
 10
3.0
 20
-77.33333587646484
 30
-4.023948349640705e-06
 11
3.0
 21
-84.66666412353516
 31
-6.879653483338188e-06
  0
LINE
  8
0
 10
36.599998474121094
 20
-92.0
 30
-9.735359526530374e-06
 11
47.79999923706055
 21
-92.0
 31
-9.735359526530374e-06
  0
LINE
  8
0
 10
36.599998474121094
 20
-92.0
 30
-9.735359526530374e-06
 11
36.599998474121094
 21
-95.0
 31
-1.0903602742473595e-05
  0
LINE
  8
0
 10
59.0
 20
-92.0
 30
-9.735359526530374e-06
 11
59.0
 21
-95.0
 31
-1.0903602742473595e-05
  0
LINE
  8
0
 10
59.0
 20
-92.0
 30
-9.735359526530374e-06
 11
70.19999694824219
 21
-92.0
 31
-9.735359526530374e-06
  0
LINE
  8
0
 10
81.4000015258789
 20
-95.0
 30
-1.0903602742473595e-05
 11
81.4000015258789
 21
-92.0
 31
-9.735359526530374e-06
  0
LINE
  8
0
 10
81.4000015258789
 20
-95.0
 30
-1.0903602742473595e-05
 11
92.5999984741211
 21
-95.0
 31
-1.0903602742473595e-05
  0
LINE
  8
0
 10
100.5
 20
-77.33333587646484
 30
-4.023948349640705e-06
 11
100.5
 21
-84.66666412353516
 31
-6.879653483338188e-06
  0
LINE
  8
0
 10
126.19999694824219
 20
-92.0
 30
-9.735359526530374e-06
 11
137.39999389648438
 21
-92.0
 31
-9.735359526530374e-06
  0
LINE
  8
0
 10
126.19999694824219
 20
-92.0
 30
-9.735359526530374e-06
 11
126.19999694824219
 21
-95.0
 31
-1.0903602742473595e-05
  0
LINE
  8
0
 10
14.199999809265137
 20
-70.0
 30
-1.1682431022563833e-06
 11
14.199999809265137
 21
-67.0
 31
0.0
  0
LINE
  8
0
 10
59.0
 20
-67.0
 30
0.0
 11
70.19999694824219
 21
-67.0
 31
0.0
  0
LINE
  8
0
 10
59.0
 20
-67.0
 30
0.0
 11
59.0
 21
-70.0
 31
-1.1682431022563833e-06
  0
LINE
  8
0
 10
81.4000015258789
 20
-67.0
 30
0.0
 11
81.4000015258789
 21
-70.0
 31
-1.1682431022563833e-06
  0
LINE
  8
0
 10
81.4000015258789
 20
-67.0
 30
0.0
 11
92.5999984741211
 21
-67.0
 31
0.0
  0
LINE
  8
0
 10
103.80000305175781
 20
-70.0
 30
-1.1682431022563833e-06
 11
103.80000305175781
 21
-67.0
 31
0.0
  0
LINE
  8
0
 10
103.80000305175781
 20
-70.0
 30
-1.1682431022563833e-06
 11
115.0
 21
-70.0
 31
-1.1682431022563833e-06
  0
LINE
  8
0
 10
148.60000610351562
 20
-67.0
 30
0.0
 11
148.60000610351562
 21
-70.0
 31
-1.1682431022563833e-06
  0
LINE
  8
0
 10
148.60000610351562
 20
-67.0
 30
0.0
 11
159.8000030517578
 21
-67.0
 31
0.0
  0
LINE
  8
0
 10
159.8000030517578
 20
-67.0
 30
0.0
 11
159.8000030517578
 21
-70.0
 31
-1.1682431022563833e-06
  0
LINE
  8
0
 10
171.0
 20
-84.66666412353516
 30
-6.879653483338188e-06
 11
174.0
 21
-84.66666412353516
 31
-6.879653483338188e-06
  0
LINE
  8
0
 10
25.399999618530273
 20
-67.0
 30
0.0
 11
20.0
 21
-67.0
 31
0.0
  0
LINE
  8
0
 10
14.199999809265137
 20
-70.0
 30
-1.1682431022563833e-06
 11
20.0
 21
-70.0
 31
-1.1682431022563833e-06
  0
LINE
  8
0
 10
23.363636016845703
 20
-84.0
 30
-6.6200441324326675e-06
 11
22.16666603088379
 21
-84.0
 31
-6.6200441324326675e-06
  0
LINE
  8
0
 10
23.363636016845703
 20
-84.0
 30
-6.6200441324326675e-06
 11
28.0
 21
-84.0
 31
-6.6200441324326675e-06
  0
LINE
  8
0
 10
20.0
 20
-86.0
 30
-7.398873094643932e-06
 11
28.0
 21
-86.0
 31
-7.398873094643932e-06
  0
LINE
  8
0
 10
171.0
 20
-77.33333587646484
 30
-4.023948349640705e-06
 11
174.0
 21
-77.33333587646484
 31
-4.023948349640705e-06
  0
LINE
  8
0
 10
61.0
 20
-72.0
 30
-1.9470717234071344e-06
 11
69.18181610107422
 21
-72.0
 31
-1.9470717234071344e-06
  0
LINE
  8
0
 10
79.36363983154297
 20
-74.0
 30
-2.7259006856183987e-06
 11
77.3272705078125
 21
-74.0
 31
-2.7259006856183987e-06
  0
LINE
  8
0
 10
97.5
 20
-77.33333587646484
 30
-4.023948349640705e-06
 11
97.5
 21
-84.66666412353516
 31
-6.879653483338188e-06
  0
LINE
  8
0
 10
97.5
 20
-84.66666412353516
 30
-6.879653483338188e-06
 11
100.5
 21
-84.66666412353516
 31
-6.879653483338188e-06
  0
LINE
  8
0
 10
77.75
 20
-79.25
 30
-4.77032608614536e-06
 11
76.69091033935547
 21
-79.25
 31
-4.77032608614536e-06
  0
LINE
  8
0
 10
177.0
 20
-64.0
 30
1.1682431022563833e-06
 11
177.0
 21
-98.0
 31
-1.2071845048922114e-05
  0
LINE
  8
0
 10
0.0
 20
-84.66666412353516
 30
-6.879653483338188e-06
 11
3.0
 21
-84.66666412353516
 31
-6.879653483338188e-06
  0
LINE
  8
0
 10
81.4000015258789
 20
-92.0
 30
-9.735359526530374e-06
 11
92.5999984741211
 21
-92.0
 31
-9.735359526530374e-06
  0
LINE
  8
0
 10
103.80000305175781
 20
-95.0
 30
-1.0903602742473595e-05
 11
103.80000305175781
 21
-92.0
 31
-9.735359526530374e-06
  0
LINE
  8
0
 10
103.80000305175781
 20
-95.0
 30
-1.0903602742473595e-05
 11
115.0
 21
-95.0
 31
-1.0903602742473595e-05
  0
LINE
  8
0
 10
137.39999389648438
 20
-92.0
 30
-9.735359526530374e-06
 11
137.39999389648438
 21
-95.0
 31
-1.0903602742473595e-05
  0
LINE
  8
0
 10
159.8000030517578
 20
-95.0
 30
-1.0903602742473595e-05
 11
148.60000610351562
 21
-95.0
 31
-1.0903602742473595e-05
  0
LINE
  8
0
 10
36.599998474121094
 20
-67.0
 30
0.0
 11
36.599998474121094
 21
-70.0
 31
-1.1682431022563833e-06
  0
LINE
  8
0
 10
36.599998474121094
 20
-67.0
 30
0.0
 11
47.79999923706055
 21
-67.0
 31
0.0
  0
LINE
  8
0
 10
103.80000305175781
 20
-67.0
 30
0.0
 11
115.0
 21
-67.0
 31
0.0
  0
LINE
  8
0
 10
126.19999694824219
 20
-70.0
 30
-1.1682431022563833e-06
 11
126.19999694824219
 21
-67.0
 31
0.0
  0
LINE
  8
0
 10
126.19999694824219
 20
-70.0
 30
-1.1682431022563833e-06
 11
137.39999389648438
 21
-70.0
 31
-1.1682431022563833e-06
  0
LINE
  8
0
 10
159.8000030517578
 20
-95.0
 30
-1.0903602742473595e-05
 11
159.8000030517578
 21
-92.0
 31
-9.735359526530374e-06
  0
LINE
  8
0
 10
171.0
 20
-77.33333587646484
 30
-4.023948349640705e-06
 11
171.0
 21
-84.66666412353516
 31
-6.879653483338188e-06
  0
LINE
  8
0
 10
174.0
 20
-77.33333587646484
 30
-4.023948349640705e-06
 11
174.0
 21
-84.66666412353516
 31
-6.879653483338188e-06
  0
LINE
  8
0
 10
5.0
 20
-86.0
 30
-7.398873094643932e-06
 11
5.0
 21
-85.97618865966797
 31
-7.389601250906708e-06
  0
LINE
  8
0
 10
5.0
 20
-84.0
 30
-6.6200441324326675e-06
 11
8.090909004211426
 21
-84.0
 31
-6.6200441324326675e-06
  0
LINE
  8
0
 10
22.16666603088379
 20
-84.0
 30
-6.6200441324326675e-06
 11
20.0
 21
-84.0
 31
-6.6200441324326675e-06
  0
LINE
  8
0
 10
59.0
 20
-84.0
 30
-6.6200441324326675e-06
 11
28.0
 21
-84.0
 31
-6.6200441324326675e-06
  0
LINE
  8
0
 10
5.0
 20
-86.0
 30
-7.398873094643932e-06
 11
5.036364555358887
 21
-86.0
 31
-7.398873094643932e-06
  0
LINE
  8
0
 10
89.0
 20
-72.0
 30
-1.9470717234071344e-06
 11
80.38182067871094
 21
-72.0
 31
-1.9470717234071344e-06
  0
LINE
  8
0
 10
8.0
 20
-82.5
 30
-6.035922524461057e-06
 11
8.0
 21
-77.5
 31
-4.088850801053923e-06
  0
LINE
  8
0
 10
17.5
 20
-82.5
 30
-6.035922524461057e-06
 11
17.5
 21
-77.5
 31
-4.088850801053923e-06
  0
LINE
  8
0
 10
8.0
 20
-82.5
 30
-6.035922524461057e-06
 11
8.479999542236328
 21
-82.5
 31
-6.035922524461057e-06
  0
LINE
  8
0
 10
14.199999809265137
 20
-95.0
 30
-1.0903602742473595e-05
 11
14.199999809265137
 21
-92.0
 31
-9.735359526530374e-06
  0
LINE
  8
0
 10
14.199999809265137
 20
-95.0
 30
-1.0903602742473595e-05
 11
25.399999618530273
 21
-95.0
 31
-1.0903602742473595e-05
  0
LINE
  8
0
 10
47.79999923706055
 20
-92.0
 30
-9.735359526530374e-06
 11
47.79999923706055
 21
-95.0
 31
-1.0903602742473595e-05
  0
LINE
  8
0
 10
59.0
 20
-95.0
 30
-1.0903602742473595e-05
 11
70.19999694824219
 21
-95.0
 31
-1.0903602742473595e-05
  0
LINE
  8
0
 10
103.80000305175781
 20
-92.0
 30
-9.735359526530374e-06
 11
115.0
 21
-92.0
 31
-9.735359526530374e-06
  0
LINE
  8
0
 10
126.19999694824219
 20
-95.0
 30
-1.0903602742473595e-05
 11
137.39999389648438
 21
-95.0
 31
-1.0903602742473595e-05
  0
LINE
  8
0
 10
25.399999618530273
 20
-70.0
 30
-1.1682431022563833e-06
 11
25.399999618530273
 21
-67.0
 31
0.0
  0
LINE
  8
0
 10
36.599998474121094
 20
-70.0
 30
-1.1682431022563833e-06
 11
47.79999923706055
 21
-70.0
 31
-1.1682431022563833e-06
  0
LINE
  8
0
 10
70.19999694824219
 20
-67.0
 30
0.0
 11
70.19999694824219
 21
-70.0
 31
-1.1682431022563833e-06
  0
LINE
  8
0
 10
81.4000015258789
 20
-70.0
 30
-1.1682431022563833e-06
 11
92.5999984741211
 21
-70.0
 31
-1.1682431022563833e-06
  0
LINE
  8
0
 10
126.19999694824219
 20
-67.0
 30
0.0
 11
137.39999389648438
 21
-67.0
 31
0.0
  0
LINE
  8
0
 10
148.60000610351562
 20
-95.0
 30
-1.0903602742473595e-05
 11
148.60000610351562
 21
-92.0
 31
-9.735359526530374e-06
  0
LINE
  8
0
 10
25.399999618530273
 20
-70.0
 30
-1.1682431022563833e-06
 11
20.0
 21
-70.0
 31
-1.1682431022563833e-06
  0
LINE
  8
0
 10
74.25
 20
-79.25
 30
-4.77032608614536e-06
 11
76.69091033935547
 21
-79.25
 31
-4.77032608614536e-06
  0
LINE
  8
0
 10
5.0
 20
-85.97618865966797
 30
-7.389601250906708e-06
 11
5.0
 21
-84.0
 31
-6.6200441324326675e-06
  0
LINE
  8
0
 10
20.0
 20
-84.0
 30
-6.6200441324326675e-06
 11
13.181818008422852
 21
-84.0
 31
-6.6200441324326675e-06
  0
LINE
  8
0
 10
61.0
 20
-74.0
 30
-2.7259006856183987e-06
 11
61.0
 21
-72.0
 31
-1.9470717234071344e-06
  0
LINE
  8
0
 10
89.0
 20
-74.0
 30
-2.7259006856183987e-06
 11
89.0
 21
-72.0
 31
-1.9470717234071344e-06
  0
LINE
  8
0
 10
89.0
 20
-74.0
 30
-2.7259006856183987e-06
 11
79.36363983154297
 21
-74.0
 31
-2.7259006856183987e-06
  0
LINE
  8
0
 10
61.0
 20
-74.0
 30
-2.7259006856183987e-06
 11
77.3272705078125
 21
-74.0
 31
-2.7259006856183987e-06
  0
LINE
  8
0
 10
74.25
 20
-82.75
 30
-6.133276201580884e-06
 11
74.25
 21
-79.25
 31
-4.77032608614536e-06
  0
LINE
  8
0
 10
74.25
 20
-82.75
 30
-6.133276201580884e-06
 11
77.75
 21
-82.75
 31
-6.133276201580884e-06
  0
LINE
  8
0
 10
77.75
 20
-82.75
 30
-6.133276201580884e-06
 11
77.75
 21
-79.25
 31
-4.77032608614536e-06
  0
LINE
  8
0
 10
69.18181610107422
 20
-72.0
 30
-1.9470717234071344e-06
 11
80.38182067871094
 21
-72.0
 31
-1.9470717234071344e-06
  0
LINE
  8
0
 10
-24.0
 20
-70.0
 30
0.0
 11
-18.0
 21
-70.0
 31
0.0
  0
LINE
  8
0
 10
-18.0
 20
-70.0
 30
0.0
 11
-18.0
 21
-67.0
 31
0.0
  0
LINE
  8
0
 10
-18.0
 20
-67.0
 30
0.0
 11
-12.0
 21
-67.0
 31
0.0
  0
LINE
  8
0
 10
-12.0
 20
-67.0
 30
0.0
 11
-12.0
 21
-70.0
 31
0.0
  0
LINE
  8
0
 10
-12.0
 20
-70.0
 30
0.0
 11
-6.0
 21
-70.0
 31
0.0
  0
LINE
  8
0
 10
-6.0
 20
-70.0
 30
0.0
 11
-6.0
 21
-59.66666793823242
 31
0.0
  0
LINE
  8
0
 10
-6.0
 20
-59.66666793823242
 30
0.0
 11
-3.0
 21
-59.66666793823242
 31
0.0
  0
LINE
  8
0
 10
-3.0
 20
-59.66666793823242
 30
0.0
 11
-3.0
 21
-52.333335876464844
 31
0.0
  0
LINE
  8
0
 10
-3.0
 20
-52.333335876464844
 30
0.0
 11
-6.0
 21
-52.333335876464844
 31
0.0
  0
LINE
  8
0
 10
-6.0
 20
-52.333335876464844
 30
0.0
 11
-6.0
 21
-42.0
 31
0.0
  0
LINE
  8
0
 10
-6.0
 20
-42.0
 30
0.0
 11
-12.0
 21
-42.0
 31
0.0
  0
LINE
  8
0
 10
-12.0
 20
-42.0
 30
0.0
 11
-12.0
 21
-45.0
 31
0.0
  0
LINE
  8
0
 10
-12.0
 20
-45.0
 30
0.0
 11
-18.0
 21
-45.0
 31
0.0
  0
LINE
  8
0
 10
-18.0
 20
-45.0
 30
0.0
 11
-18.0
 21
-42.0
 31
0.0
  0
LINE
  8
0
 10
-18.0
 20
-42.0
 30
0.0
 11
-24.0
 21
-42.0
 31
0.0
  0
LINE
  8
0
 10
-24.0
 20
-42.0
 30
0.0
 11
-24.0
 21
-52.333335876464844
 31
0.0
  0
LINE
  8
0
 10
-24.0
 20
-52.333335876464844
 30
0.0
 11
-27.0
 21
-52.333335876464844
 31
0.0
  0
LINE
  8
0
 10
-27.0
 20
-52.333335876464844
 30
0.0
 11
-27.0
 21
-59.66666793823242
 31
0.0
  0
LINE
  8
0
 10
-24.0
 20
-70.0
 30
0.0
 11
-24.0
 21
-59.66666793823242
 31
0.0
  0
LINE
  8
0
 10
-21.0
 20
-46.5
 30
0.0
 11
-21.0
 21
-51.5
 31
0.0
  0
LINE
  8
0
 10
-21.0
 20
-51.5
 30
0.0
 11
-9.0
 21
-51.5
 31
0.0
  0
LINE
  8
0
 10
-21.0
 20
-46.5
 30
0.0
 11
-18.613636016845703
 21
-46.5
 31
0.0
  0
LINE
  8
0
 10
-18.613636016845703
 20
-46.5
 30
0.0
 11
-11.386363983154297
 21
-46.5
 31
0.0
  0
LINE
  8
0
 10
-9.0
 20
-46.5
 30
0.0
 11
-11.386363983154297
 21
-46.5
 31
0.0
  0
LINE
  8
0
 10
-9.0
 20
-46.5
 30
0.0
 11
-9.0
 21
-51.5
 31
0.0
  0
LINE
  8
0
 10
-27.0
 20
-59.66666793823242
 30
0.0
 11
-24.0
 21
-59.66666793823242
 31
0.0
  0
LINE
  8
0
 10
-15.0
 20
-59.0
 30
0.0
 11
-15.5
 21
-59.13397216796875
 31
0.0
  0
LINE
  8
0
 10
-15.5
 20
-59.13397216796875
 30
0.0
 11
-15.866025924682617
 21
-59.5
 31
0.0
  0
LINE
  8
0
 10
-15.866025924682617
 20
-59.5
 30
0.0
 11
-16.0
 21
-60.0
 31
0.0
  0
LINE
  8
0
 10
-16.0
 20
-60.0
 30
0.0
 11
-15.866025924682617
 21
-60.5
 31
0.0
  0
LINE
  8
0
 10
-15.866025924682617
 20
-60.5
 30
0.0
 11
-15.5
 21
-60.86602783203125
 31
0.0
  0
LINE
  8
0
 10
-15.5
 20
-60.86602783203125
 30
0.0
 11
-15.0
 21
-61.0
 31
0.0
  0
LINE
  8
0
 10
-15.0
 20
-61.0
 30
0.0
 11
-14.5
 21
-60.86602783203125
 31
0.0
  0
LINE
  8
0
 10
-14.5
 20
-60.86602783203125
 30
0.0
 11
-14.133974075317383
 21
-60.5
 31
0.0
  0
LINE
  8
0
 10
-14.133974075317383
 20
-60.5
 30
0.0
 11
-14.0
 21
-60.0
 31
0.0
  0
LINE
  8
0
 10
-14.0
 20
-60.0
 30
0.0
 11
-14.133974075317383
 21
-59.5
 31
0.0
  0
LINE
  8
0
 10
-14.133974075317383
 20
-59.5
 30
0.0
 11
-14.5
 21
-59.13397216796875
 31
0.0
  0
LINE
  8
0
 10
-15.0
 20
-59.0
 30
0.0
 11
-14.5
 21
-59.13397216796875
 31
0.0
  0
LINE
  8
0
 10
-27.0
 20
-30.0
 30
0.0
 11
-19.666667938232422
 21
-30.0
 31
0.0
  0
LINE
  8
0
 10
-19.666667938232422
 20
-30.0
 30
0.0
 11
-19.666667938232422
 21
-33.04999923706055
 31
0.0
  0
LINE
  8
0
 10
-19.666667938232422
 20
-33.04999923706055
 30
0.0
 11
-12.333333969116211
 21
-33.04999923706055
 31
0.0
  0
LINE
  8
0
 10
-12.333333969116211
 20
-33.04999923706055
 30
0.0
 11
-12.333333969116211
 21
-29.0
 31
0.0
  0
LINE
  8
0
 10
-12.333333969116211
 20
-29.0
 30
0.0
 11
-13.0
 21
-29.0
 31
3.4969110629390343e-07
  0
LINE
  8
0
 10
-13.0
 20
-29.0
 30
3.4969110629390343e-07
 11
-13.0
 21
-26.799999237060547
 31
3.4969110629390343e-07
  0
LINE
  8
0
 10
-13.0
 20
-12.999998092651367
 30
3.4969110629390343e-07
 11
-12.333333969116211
 21
-12.999998092651367
 31
0.0
  0
LINE
  8
0
 10
-12.333333969116211
 20
-12.999998092651367
 30
0.0
 11
-12.333333969116211
 21
-8.949996948242188
 31
0.0
  0
LINE
  8
0
 10
-12.333333969116211
 20
-8.949996948242188
 30
0.0
 11
-19.666667938232422
 21
-8.949996948242188
 31
0.0
  0
LINE
  8
0
 10
-19.666667938232422
 20
-8.949996948242188
 30
0.0
 11
-19.666667938232422
 21
-11.999998092651367
 31
0.0
  0
LINE
  8
0
 10
-19.666667938232422
 20
-11.999998092651367
 30
0.0
 11
-27.0
 21
-11.999998092651367
 31
0.0
  0
LINE
  8
0
 10
-27.0
 20
-30.0
 30
0.0
 11
-27.0
 21
-11.999998092651367
 31
0.0
  0
LINE
  8
0
 10
-13.0
 20
-26.799999237060547
 30
3.4969110629390343e-07
 11
-1.9500007629394531
 21
-26.799999237060547
 31
-1.3113415775478643e-07
  0
LINE
  8
0
 10
-1.9500007629394531
 20
-26.799999237060547
 30
-1.3113415775478643e-07
 11
-1.9500007629394531
 21
-24.89999771118164
 31
-1.3113415775478643e-07
  0
LINE
  8
0
 10
-1.9500007629394531
 20
-24.89999771118164
 30
-1.3113415775478643e-07
 11
-13.0
 21
-24.89999771118164
 31
3.4969110629390343e-07
  0
LINE
  8
0
 10
-13.0
 20
-24.89999771118164
 30
3.4969110629390343e-07
 11
-13.0
 21
-17.099998474121094
 31
3.4969110629390343e-07
  0
LINE
  8
0
 10
-13.0
 20
-17.099998474121094
 30
3.4969110629390343e-07
 11
-1.9500007629394531
 21
-17.099998474121094
 31
-1.3113415775478643e-07
  0
LINE
  8
0
 10
-1.9500007629394531
 20
-17.099998474121094
 30
-1.3113415775478643e-07
 11
-1.9500007629394531
 21
-15.19999885559082
 31
-1.3113415775478643e-07
  0
LINE
  8
0
 10
-1.9500007629394531
 20
-15.19999885559082
 30
-1.3113415775478643e-07
 11
-13.0
 21
-15.19999885559082
 31
3.4969110629390343e-07
  0
LINE
  8
0
 10
-13.0
 20
-12.999998092651367
 30
3.4969110629390343e-07
 11
-13.0
 21
-15.19999885559082
 31
3.4969110629390343e-07
  0
ENDSEC
  0
EOF
